<?xml version="1.0" encoding="utf-8" standalone="no"?>
<!DOCTYPE svg PUBLIC "-//W3C//DTD SVG 1.1//EN"
  "http://www.w3.org/Graphics/SVG/1.1/DTD/svg11.dtd">
<!-- Created with matplotlib (https://matplotlib.org/) -->
<svg height="144pt" version="1.1" viewBox="0 0 720 144" width="720pt" xmlns="http://www.w3.org/2000/svg" xmlns:xlink="http://www.w3.org/1999/xlink">
 <defs>
  <style type="text/css">
*{stroke-linecap:butt;stroke-linejoin:round;}
  </style>
 </defs>
 <g id="figure_1">
  <g id="patch_1">
   <path d="M 0 144 
L 720 144 
L 720 0 
L 0 0 
z
" style="fill:#ffffff;"/>
  </g>
  <g id="axes_1">
   <g id="patch_2">
    <path d="M 55.46 90.32 
L 347.04 90.32 
L 347.04 25.92 
L 55.46 25.92 
z
" style="fill:#ffffff;"/>
   </g>
   <g id="matplotlib.axis_1">
    <g id="text_1">
     <!-- genes -->
     <defs>
      <path d="M 45.40625 27.984375 
Q 45.40625 37.75 41.375 43.109375 
Q 37.359375 48.484375 30.078125 48.484375 
Q 22.859375 48.484375 18.828125 43.109375 
Q 14.796875 37.75 14.796875 27.984375 
Q 14.796875 18.265625 18.828125 12.890625 
Q 22.859375 7.515625 30.078125 7.515625 
Q 37.359375 7.515625 41.375 12.890625 
Q 45.40625 18.265625 45.40625 27.984375 
z
M 54.390625 6.78125 
Q 54.390625 -7.171875 48.1875 -13.984375 
Q 42 -20.796875 29.203125 -20.796875 
Q 24.46875 -20.796875 20.265625 -20.09375 
Q 16.0625 -19.390625 12.109375 -17.921875 
L 12.109375 -9.1875 
Q 16.0625 -11.328125 19.921875 -12.34375 
Q 23.78125 -13.375 27.78125 -13.375 
Q 36.625 -13.375 41.015625 -8.765625 
Q 45.40625 -4.15625 45.40625 5.171875 
L 45.40625 9.625 
Q 42.625 4.78125 38.28125 2.390625 
Q 33.9375 0 27.875 0 
Q 17.828125 0 11.671875 7.65625 
Q 5.515625 15.328125 5.515625 27.984375 
Q 5.515625 40.671875 11.671875 48.328125 
Q 17.828125 56 27.875 56 
Q 33.9375 56 38.28125 53.609375 
Q 42.625 51.21875 45.40625 46.390625 
L 45.40625 54.6875 
L 54.390625 54.6875 
z
" id="DejaVuSans-103"/>
      <path d="M 56.203125 29.59375 
L 56.203125 25.203125 
L 14.890625 25.203125 
Q 15.484375 15.921875 20.484375 11.0625 
Q 25.484375 6.203125 34.421875 6.203125 
Q 39.59375 6.203125 44.453125 7.46875 
Q 49.3125 8.734375 54.109375 11.28125 
L 54.109375 2.78125 
Q 49.265625 0.734375 44.1875 -0.34375 
Q 39.109375 -1.421875 33.890625 -1.421875 
Q 20.796875 -1.421875 13.15625 6.1875 
Q 5.515625 13.8125 5.515625 26.8125 
Q 5.515625 40.234375 12.765625 48.109375 
Q 20.015625 56 32.328125 56 
Q 43.359375 56 49.78125 48.890625 
Q 56.203125 41.796875 56.203125 29.59375 
z
M 47.21875 32.234375 
Q 47.125 39.59375 43.09375 43.984375 
Q 39.0625 48.390625 32.421875 48.390625 
Q 24.90625 48.390625 20.390625 44.140625 
Q 15.875 39.890625 15.1875 32.171875 
z
" id="DejaVuSans-101"/>
      <path d="M 54.890625 33.015625 
L 54.890625 0 
L 45.90625 0 
L 45.90625 32.71875 
Q 45.90625 40.484375 42.875 44.328125 
Q 39.84375 48.1875 33.796875 48.1875 
Q 26.515625 48.1875 22.3125 43.546875 
Q 18.109375 38.921875 18.109375 30.90625 
L 18.109375 0 
L 9.078125 0 
L 9.078125 54.6875 
L 18.109375 54.6875 
L 18.109375 46.1875 
Q 21.34375 51.125 25.703125 53.5625 
Q 30.078125 56 35.796875 56 
Q 45.21875 56 50.046875 50.171875 
Q 54.890625 44.34375 54.890625 33.015625 
z
" id="DejaVuSans-110"/>
      <path d="M 44.28125 53.078125 
L 44.28125 44.578125 
Q 40.484375 46.53125 36.375 47.5 
Q 32.28125 48.484375 27.875 48.484375 
Q 21.1875 48.484375 17.84375 46.4375 
Q 14.5 44.390625 14.5 40.28125 
Q 14.5 37.15625 16.890625 35.375 
Q 19.28125 33.59375 26.515625 31.984375 
L 29.59375 31.296875 
Q 39.15625 29.25 43.1875 25.515625 
Q 47.21875 21.78125 47.21875 15.09375 
Q 47.21875 7.46875 41.1875 3.015625 
Q 35.15625 -1.421875 24.609375 -1.421875 
Q 20.21875 -1.421875 15.453125 -0.5625 
Q 10.6875 0.296875 5.421875 2 
L 5.421875 11.28125 
Q 10.40625 8.6875 15.234375 7.390625 
Q 20.0625 6.109375 24.8125 6.109375 
Q 31.15625 6.109375 34.5625 8.28125 
Q 37.984375 10.453125 37.984375 14.40625 
Q 37.984375 18.0625 35.515625 20.015625 
Q 33.0625 21.96875 24.703125 23.78125 
L 21.578125 24.515625 
Q 13.234375 26.265625 9.515625 29.90625 
Q 5.8125 33.546875 5.8125 39.890625 
Q 5.8125 47.609375 11.28125 51.796875 
Q 16.75 56 26.8125 56 
Q 31.78125 56 36.171875 55.265625 
Q 40.578125 54.546875 44.28125 53.078125 
z
" id="DejaVuSans-115"/>
     </defs>
     <g style="fill:#262626;" transform="translate(165.008125 112.55625)scale(0.24 -0.24)">
      <use xlink:href="#DejaVuSans-103"/>
      <use x="63.476562" xlink:href="#DejaVuSans-101"/>
      <use x="125" xlink:href="#DejaVuSans-110"/>
      <use x="188.378906" xlink:href="#DejaVuSans-101"/>
      <use x="249.902344" xlink:href="#DejaVuSans-115"/>
     </g>
    </g>
   </g>
   <g id="matplotlib.axis_2">
    <g id="ytick_1">
     <g id="line2d_1">
      <defs>
       <path d="M 0 0 
L -12 0 
" id="m6f0b0d6a85" style="stroke:#262626;stroke-width:2.5;"/>
      </defs>
      <g>
       <use style="fill:#262626;stroke:#262626;stroke-width:2.5;" x="55.46" xlink:href="#m6f0b0d6a85" y="90.32"/>
      </g>
     </g>
     <g id="text_2">
      <!-- 0 -->
      <defs>
       <path d="M 31.78125 66.40625 
Q 24.171875 66.40625 20.328125 58.90625 
Q 16.5 51.421875 16.5 36.375 
Q 16.5 21.390625 20.328125 13.890625 
Q 24.171875 6.390625 31.78125 6.390625 
Q 39.453125 6.390625 43.28125 13.890625 
Q 47.125 21.390625 47.125 36.375 
Q 47.125 51.421875 43.28125 58.90625 
Q 39.453125 66.40625 31.78125 66.40625 
z
M 31.78125 74.21875 
Q 44.046875 74.21875 50.515625 64.515625 
Q 56.984375 54.828125 56.984375 36.375 
Q 56.984375 17.96875 50.515625 8.265625 
Q 44.046875 -1.421875 31.78125 -1.421875 
Q 19.53125 -1.421875 13.0625 8.265625 
Q 6.59375 17.96875 6.59375 36.375 
Q 6.59375 54.828125 13.0625 64.515625 
Q 19.53125 74.21875 31.78125 74.21875 
z
" id="DejaVuSans-48"/>
      </defs>
      <g style="fill:#262626;" transform="translate(25.9625 98.678281)scale(0.22 -0.22)">
       <use xlink:href="#DejaVuSans-48"/>
      </g>
     </g>
    </g>
    <g id="ytick_2">
     <g id="line2d_2">
      <g>
       <use style="fill:#262626;stroke:#262626;stroke-width:2.5;" x="55.46" xlink:href="#m6f0b0d6a85" y="36.653333"/>
      </g>
     </g>
     <g id="text_3">
      <!-- 1 -->
      <defs>
       <path d="M 12.40625 8.296875 
L 28.515625 8.296875 
L 28.515625 63.921875 
L 10.984375 60.40625 
L 10.984375 69.390625 
L 28.421875 72.90625 
L 38.28125 72.90625 
L 38.28125 8.296875 
L 54.390625 8.296875 
L 54.390625 0 
L 12.40625 0 
z
" id="DejaVuSans-49"/>
      </defs>
      <g style="fill:#262626;" transform="translate(25.9625 45.011615)scale(0.22 -0.22)">
       <use xlink:href="#DejaVuSans-49"/>
      </g>
     </g>
    </g>
   </g>
   <g id="patch_3">
    <path clip-path="url(#p6086f8b2a7)" d="M 68.713636 90.32 
L 69.248057 90.32 
L 69.248057 74.53558 
L 68.713636 74.53558 
z
" style="fill:#7f7f7f;stroke:#7f7f7f;stroke-linejoin:miter;stroke-width:2;"/>
   </g>
   <g id="patch_4">
    <path clip-path="url(#p6086f8b2a7)" d="M 71.38574 90.32 
L 71.920161 90.32 
L 71.920161 72.968076 
L 71.38574 72.968076 
z
" style="fill:#7f7f7f;stroke:#7f7f7f;stroke-linejoin:miter;stroke-width:2;"/>
   </g>
   <g id="patch_5">
    <path clip-path="url(#p6086f8b2a7)" d="M 74.057845 90.32 
L 74.592265 90.32 
L 74.592265 86.562928 
L 74.057845 86.562928 
z
" style="fill:#7f7f7f;stroke:#7f7f7f;stroke-linejoin:miter;stroke-width:2;"/>
   </g>
   <g id="patch_6">
    <path clip-path="url(#p6086f8b2a7)" d="M 76.729949 90.32 
L 77.26437 90.32 
L 77.26437 40.429478 
L 76.729949 40.429478 
z
" style="fill:#7f7f7f;stroke:#7f7f7f;stroke-linejoin:miter;stroke-width:2;"/>
   </g>
   <g id="patch_7">
    <path clip-path="url(#p6086f8b2a7)" d="M 79.402053 90.32 
L 79.936474 90.32 
L 79.936474 74.798582 
L 79.402053 74.798582 
z
" style="fill:#7f7f7f;stroke:#7f7f7f;stroke-linejoin:miter;stroke-width:2;"/>
   </g>
   <g id="patch_8">
    <path clip-path="url(#p6086f8b2a7)" d="M 82.074157 90.32 
L 82.608578 90.32 
L 82.608578 39.821073 
L 82.074157 39.821073 
z
" style="fill:#7f7f7f;stroke:#7f7f7f;stroke-linejoin:miter;stroke-width:2;"/>
   </g>
   <g id="patch_9">
    <path clip-path="url(#p6086f8b2a7)" d="M 84.746261 90.32 
L 85.280682 90.32 
L 85.280682 37.640676 
L 84.746261 37.640676 
z
" style="fill:#7f7f7f;stroke:#7f7f7f;stroke-linejoin:miter;stroke-width:2;"/>
   </g>
   <g id="patch_10">
    <path clip-path="url(#p6086f8b2a7)" d="M 87.418365 90.32 
L 87.952786 90.32 
L 87.952786 72.030167 
L 87.418365 72.030167 
z
" style="fill:#7f7f7f;stroke:#7f7f7f;stroke-linejoin:miter;stroke-width:2;"/>
   </g>
   <g id="patch_11">
    <path clip-path="url(#p6086f8b2a7)" d="M 90.090469 90.32 
L 90.62489 90.32 
L 90.62489 88.168644 
L 90.090469 88.168644 
z
" style="fill:#7f7f7f;stroke:#7f7f7f;stroke-linejoin:miter;stroke-width:2;"/>
   </g>
   <g id="patch_12">
    <path clip-path="url(#p6086f8b2a7)" d="M 92.762573 90.32 
L 93.296994 90.32 
L 93.296994 67.185372 
L 92.762573 67.185372 
z
" style="fill:#7f7f7f;stroke:#7f7f7f;stroke-linejoin:miter;stroke-width:2;"/>
   </g>
   <g id="patch_13">
    <path clip-path="url(#p6086f8b2a7)" d="M 95.434677 90.32 
L 95.969098 90.32 
L 95.969098 39.467128 
L 95.434677 39.467128 
z
" style="fill:#7f7f7f;stroke:#7f7f7f;stroke-linejoin:miter;stroke-width:2;"/>
   </g>
   <g id="patch_14">
    <path clip-path="url(#p6086f8b2a7)" d="M 98.106782 90.32 
L 98.641202 90.32 
L 98.641202 42.593221 
L 98.106782 42.593221 
z
" style="fill:#7f7f7f;stroke:#7f7f7f;stroke-linejoin:miter;stroke-width:2;"/>
   </g>
   <g id="patch_15">
    <path clip-path="url(#p6086f8b2a7)" d="M 100.778886 90.32 
L 101.313306 90.32 
L 101.313306 56.989685 
L 100.778886 56.989685 
z
" style="fill:#7f7f7f;stroke:#7f7f7f;stroke-linejoin:miter;stroke-width:2;"/>
   </g>
   <g id="patch_16">
    <path clip-path="url(#p6086f8b2a7)" d="M 103.45099 90.32 
L 103.985411 90.32 
L 103.985411 70.065858 
L 103.45099 70.065858 
z
" style="fill:#7f7f7f;stroke:#7f7f7f;stroke-linejoin:miter;stroke-width:2;"/>
   </g>
   <g id="patch_17">
    <path clip-path="url(#p6086f8b2a7)" d="M 106.123094 90.32 
L 106.657515 90.32 
L 106.657515 67.139719 
L 106.123094 67.139719 
z
" style="fill:#7f7f7f;stroke:#7f7f7f;stroke-linejoin:miter;stroke-width:2;"/>
   </g>
   <g id="patch_18">
    <path clip-path="url(#p6086f8b2a7)" d="M 108.795198 90.32 
L 109.329619 90.32 
L 109.329619 58.756792 
L 108.795198 58.756792 
z
" style="fill:#7f7f7f;stroke:#7f7f7f;stroke-linejoin:miter;stroke-width:2;"/>
   </g>
   <g id="patch_19">
    <path clip-path="url(#p6086f8b2a7)" d="M 111.467302 90.32 
L 112.001723 90.32 
L 112.001723 58.557263 
L 111.467302 58.557263 
z
" style="fill:#7f7f7f;stroke:#7f7f7f;stroke-linejoin:miter;stroke-width:2;"/>
   </g>
   <g id="patch_20">
    <path clip-path="url(#p6086f8b2a7)" d="M 114.139406 90.32 
L 114.673827 90.32 
L 114.673827 39.133807 
L 114.139406 39.133807 
z
" style="fill:#7f7f7f;stroke:#7f7f7f;stroke-linejoin:miter;stroke-width:2;"/>
   </g>
   <g id="patch_21">
    <path clip-path="url(#p6086f8b2a7)" d="M 116.81151 90.32 
L 117.345931 90.32 
L 117.345931 59.279236 
L 116.81151 59.279236 
z
" style="fill:#7f7f7f;stroke:#7f7f7f;stroke-linejoin:miter;stroke-width:2;"/>
   </g>
   <g id="patch_22">
    <path clip-path="url(#p6086f8b2a7)" d="M 119.483614 90.32 
L 120.018035 90.32 
L 120.018035 80.028405 
L 119.483614 80.028405 
z
" style="fill:#7f7f7f;stroke:#7f7f7f;stroke-linejoin:miter;stroke-width:2;"/>
   </g>
   <g id="patch_23">
    <path clip-path="url(#p6086f8b2a7)" d="M 122.155718 90.32 
L 122.690139 90.32 
L 122.690139 48.581345 
L 122.155718 48.581345 
z
" style="fill:#7f7f7f;stroke:#7f7f7f;stroke-linejoin:miter;stroke-width:2;"/>
   </g>
   <g id="patch_24">
    <path clip-path="url(#p6086f8b2a7)" d="M 124.827823 90.32 
L 125.362243 90.32 
L 125.362243 52.202352 
L 124.827823 52.202352 
z
" style="fill:#7f7f7f;stroke:#7f7f7f;stroke-linejoin:miter;stroke-width:2;"/>
   </g>
   <g id="patch_25">
    <path clip-path="url(#p6086f8b2a7)" d="M 127.499927 90.32 
L 128.034348 90.32 
L 128.034348 59.235145 
L 127.499927 59.235145 
z
" style="fill:#7f7f7f;stroke:#7f7f7f;stroke-linejoin:miter;stroke-width:2;"/>
   </g>
   <g id="patch_26">
    <path clip-path="url(#p6086f8b2a7)" d="M 130.172031 90.32 
L 130.706452 90.32 
L 130.706452 69.596704 
L 130.172031 69.596704 
z
" style="fill:#7f7f7f;stroke:#7f7f7f;stroke-linejoin:miter;stroke-width:2;"/>
   </g>
   <g id="patch_27">
    <path clip-path="url(#p6086f8b2a7)" d="M 132.844135 90.32 
L 133.378556 90.32 
L 133.378556 52.494495 
L 132.844135 52.494495 
z
" style="fill:#7f7f7f;stroke:#7f7f7f;stroke-linejoin:miter;stroke-width:2;"/>
   </g>
   <g id="patch_28">
    <path clip-path="url(#p6086f8b2a7)" d="M 135.516239 90.32 
L 136.05066 90.32 
L 136.05066 78.679184 
L 135.516239 78.679184 
z
" style="fill:#7f7f7f;stroke:#7f7f7f;stroke-linejoin:miter;stroke-width:2;"/>
   </g>
   <g id="patch_29">
    <path clip-path="url(#p6086f8b2a7)" d="M 138.188343 90.32 
L 138.722764 90.32 
L 138.722764 68.802003 
L 138.188343 68.802003 
z
" style="fill:#7f7f7f;stroke:#7f7f7f;stroke-linejoin:miter;stroke-width:2;"/>
   </g>
   <g id="patch_30">
    <path clip-path="url(#p6086f8b2a7)" d="M 140.860447 90.32 
L 141.394868 90.32 
L 141.394868 58.696112 
L 140.860447 58.696112 
z
" style="fill:#7f7f7f;stroke:#7f7f7f;stroke-linejoin:miter;stroke-width:2;"/>
   </g>
   <g id="patch_31">
    <path clip-path="url(#p6086f8b2a7)" d="M 143.532551 90.32 
L 144.066972 90.32 
L 144.066972 72.110659 
L 143.532551 72.110659 
z
" style="fill:#7f7f7f;stroke:#7f7f7f;stroke-linejoin:miter;stroke-width:2;"/>
   </g>
   <g id="patch_32">
    <path clip-path="url(#p6086f8b2a7)" d="M 146.204655 90.32 
L 146.739076 90.32 
L 146.739076 64.63078 
L 146.204655 64.63078 
z
" style="fill:#7f7f7f;stroke:#7f7f7f;stroke-linejoin:miter;stroke-width:2;"/>
   </g>
   <g id="patch_33">
    <path clip-path="url(#p6086f8b2a7)" d="M 148.87676 90.32 
L 149.41118 90.32 
L 149.41118 45.928656 
L 148.87676 45.928656 
z
" style="fill:#1f77b4;stroke:#1f77b4;stroke-linejoin:miter;stroke-width:2;"/>
   </g>
   <g id="patch_34">
    <path clip-path="url(#p6086f8b2a7)" d="M 151.548864 90.32 
L 152.083284 90.32 
L 152.083284 45.898088 
L 151.548864 45.898088 
z
" style="fill:#1f77b4;stroke:#1f77b4;stroke-linejoin:miter;stroke-width:2;"/>
   </g>
   <g id="patch_35">
    <path clip-path="url(#p6086f8b2a7)" d="M 154.220968 90.32 
L 154.755389 90.32 
L 154.755389 54.941244 
L 154.220968 54.941244 
z
" style="fill:#1f77b4;stroke:#1f77b4;stroke-linejoin:miter;stroke-width:2;"/>
   </g>
   <g id="patch_36">
    <path clip-path="url(#p6086f8b2a7)" d="M 156.893072 90.32 
L 157.427493 90.32 
L 157.427493 61.63438 
L 156.893072 61.63438 
z
" style="fill:#1f77b4;stroke:#1f77b4;stroke-linejoin:miter;stroke-width:2;"/>
   </g>
   <g id="patch_37">
    <path clip-path="url(#p6086f8b2a7)" d="M 159.565176 90.32 
L 160.099597 90.32 
L 160.099597 55.569286 
L 159.565176 55.569286 
z
" style="fill:#1f77b4;stroke:#1f77b4;stroke-linejoin:miter;stroke-width:2;"/>
   </g>
   <g id="patch_38">
    <path clip-path="url(#p6086f8b2a7)" d="M 162.23728 90.32 
L 162.771701 90.32 
L 162.771701 47.308856 
L 162.23728 47.308856 
z
" style="fill:#1f77b4;stroke:#1f77b4;stroke-linejoin:miter;stroke-width:2;"/>
   </g>
   <g id="patch_39">
    <path clip-path="url(#p6086f8b2a7)" d="M 164.909384 90.32 
L 165.443805 90.32 
L 165.443805 65.658626 
L 164.909384 65.658626 
z
" style="fill:#1f77b4;stroke:#1f77b4;stroke-linejoin:miter;stroke-width:2;"/>
   </g>
   <g id="patch_40">
    <path clip-path="url(#p6086f8b2a7)" d="M 167.581488 90.32 
L 168.115909 90.32 
L 168.115909 67.150697 
L 167.581488 67.150697 
z
" style="fill:#1f77b4;stroke:#1f77b4;stroke-linejoin:miter;stroke-width:2;"/>
   </g>
   <g id="patch_41">
    <path clip-path="url(#p6086f8b2a7)" d="M 170.253592 90.32 
L 170.788013 90.32 
L 170.788013 58.392729 
L 170.253592 58.392729 
z
" style="fill:#1f77b4;stroke:#1f77b4;stroke-linejoin:miter;stroke-width:2;"/>
   </g>
   <g id="patch_42">
    <path clip-path="url(#p6086f8b2a7)" d="M 172.925696 90.32 
L 173.460117 90.32 
L 173.460117 75.538875 
L 172.925696 75.538875 
z
" style="fill:#1f77b4;stroke:#1f77b4;stroke-linejoin:miter;stroke-width:2;"/>
   </g>
   <g id="patch_43">
    <path clip-path="url(#p6086f8b2a7)" d="M 175.597801 90.32 
L 176.132221 90.32 
L 176.132221 41.529367 
L 175.597801 41.529367 
z
" style="fill:#1f77b4;stroke:#1f77b4;stroke-linejoin:miter;stroke-width:2;"/>
   </g>
   <g id="patch_44">
    <path clip-path="url(#p6086f8b2a7)" d="M 178.269905 90.32 
L 178.804326 90.32 
L 178.804326 80.75104 
L 178.269905 80.75104 
z
" style="fill:#1f77b4;stroke:#1f77b4;stroke-linejoin:miter;stroke-width:2;"/>
   </g>
   <g id="patch_45">
    <path clip-path="url(#p6086f8b2a7)" d="M 180.942009 90.32 
L 181.47643 90.32 
L 181.47643 79.028238 
L 180.942009 79.028238 
z
" style="fill:#1f77b4;stroke:#1f77b4;stroke-linejoin:miter;stroke-width:2;"/>
   </g>
   <g id="patch_46">
    <path clip-path="url(#p6086f8b2a7)" d="M 183.614113 90.32 
L 184.148534 90.32 
L 184.148534 48.843695 
L 183.614113 48.843695 
z
" style="fill:#1f77b4;stroke:#1f77b4;stroke-linejoin:miter;stroke-width:2;"/>
   </g>
   <g id="patch_47">
    <path clip-path="url(#p6086f8b2a7)" d="M 186.286217 90.32 
L 186.820638 90.32 
L 186.820638 79.866096 
L 186.286217 79.866096 
z
" style="fill:#1f77b4;stroke:#1f77b4;stroke-linejoin:miter;stroke-width:2;"/>
   </g>
   <g id="patch_48">
    <path clip-path="url(#p6086f8b2a7)" d="M 188.958321 90.32 
L 189.492742 90.32 
L 189.492742 37.746243 
L 188.958321 37.746243 
z
" style="fill:#1f77b4;stroke:#1f77b4;stroke-linejoin:miter;stroke-width:2;"/>
   </g>
   <g id="patch_49">
    <path clip-path="url(#p6086f8b2a7)" d="M 191.630425 90.32 
L 192.164846 90.32 
L 192.164846 53.019808 
L 191.630425 53.019808 
z
" style="fill:#1f77b4;stroke:#1f77b4;stroke-linejoin:miter;stroke-width:2;"/>
   </g>
   <g id="patch_50">
    <path clip-path="url(#p6086f8b2a7)" d="M 194.302529 90.32 
L 194.83695 90.32 
L 194.83695 52.328333 
L 194.302529 52.328333 
z
" style="fill:#1f77b4;stroke:#1f77b4;stroke-linejoin:miter;stroke-width:2;"/>
   </g>
   <g id="patch_51">
    <path clip-path="url(#p6086f8b2a7)" d="M 196.974633 90.32 
L 197.509054 90.32 
L 197.509054 74.087084 
L 196.974633 74.087084 
z
" style="fill:#1f77b4;stroke:#1f77b4;stroke-linejoin:miter;stroke-width:2;"/>
   </g>
   <g id="patch_52">
    <path clip-path="url(#p6086f8b2a7)" d="M 199.646738 90.32 
L 200.181158 90.32 
L 200.181158 48.521011 
L 199.646738 48.521011 
z
" style="fill:#1f77b4;stroke:#1f77b4;stroke-linejoin:miter;stroke-width:2;"/>
   </g>
   <g id="patch_53">
    <path clip-path="url(#p6086f8b2a7)" d="M 202.318842 90.32 
L 202.853262 90.32 
L 202.853262 66.232256 
L 202.318842 66.232256 
z
" style="fill:#1f77b4;stroke:#1f77b4;stroke-linejoin:miter;stroke-width:2;"/>
   </g>
   <g id="patch_54">
    <path clip-path="url(#p6086f8b2a7)" d="M 204.990946 90.32 
L 205.525367 90.32 
L 205.525367 66.395009 
L 204.990946 66.395009 
z
" style="fill:#1f77b4;stroke:#1f77b4;stroke-linejoin:miter;stroke-width:2;"/>
   </g>
   <g id="patch_55">
    <path clip-path="url(#p6086f8b2a7)" d="M 207.66305 90.32 
L 208.197471 90.32 
L 208.197471 66.800264 
L 207.66305 66.800264 
z
" style="fill:#1f77b4;stroke:#1f77b4;stroke-linejoin:miter;stroke-width:2;"/>
   </g>
   <g id="patch_56">
    <path clip-path="url(#p6086f8b2a7)" d="M 210.335154 90.32 
L 210.869575 90.32 
L 210.869575 38.36776 
L 210.335154 38.36776 
z
" style="fill:#1f77b4;stroke:#1f77b4;stroke-linejoin:miter;stroke-width:2;"/>
   </g>
   <g id="patch_57">
    <path clip-path="url(#p6086f8b2a7)" d="M 213.007258 90.32 
L 213.541679 90.32 
L 213.541679 71.845962 
L 213.007258 71.845962 
z
" style="fill:#1f77b4;stroke:#1f77b4;stroke-linejoin:miter;stroke-width:2;"/>
   </g>
   <g id="patch_58">
    <path clip-path="url(#p6086f8b2a7)" d="M 215.679362 90.32 
L 216.213783 90.32 
L 216.213783 45.554611 
L 215.679362 45.554611 
z
" style="fill:#1f77b4;stroke:#1f77b4;stroke-linejoin:miter;stroke-width:2;"/>
   </g>
   <g id="patch_59">
    <path clip-path="url(#p6086f8b2a7)" d="M 218.351466 90.32 
L 218.885887 90.32 
L 218.885887 69.986585 
L 218.351466 69.986585 
z
" style="fill:#1f77b4;stroke:#1f77b4;stroke-linejoin:miter;stroke-width:2;"/>
   </g>
   <g id="patch_60">
    <path clip-path="url(#p6086f8b2a7)" d="M 221.02357 90.32 
L 221.557991 90.32 
L 221.557991 90.139961 
L 221.02357 90.139961 
z
" style="fill:#1f77b4;stroke:#1f77b4;stroke-linejoin:miter;stroke-width:2;"/>
   </g>
   <g id="patch_61">
    <path clip-path="url(#p6086f8b2a7)" d="M 223.695674 90.32 
L 224.230095 90.32 
L 224.230095 51.145646 
L 223.695674 51.145646 
z
" style="fill:#1f77b4;stroke:#1f77b4;stroke-linejoin:miter;stroke-width:2;"/>
   </g>
   <g id="patch_62">
    <path clip-path="url(#p6086f8b2a7)" d="M 226.367779 90.32 
L 226.902199 90.32 
L 226.902199 41.825506 
L 226.367779 41.825506 
z
" style="fill:#1f77b4;stroke:#1f77b4;stroke-linejoin:miter;stroke-width:2;"/>
   </g>
   <g id="patch_63">
    <path clip-path="url(#p6086f8b2a7)" d="M 229.039883 90.32 
L 229.574304 90.32 
L 229.574304 41.652749 
L 229.039883 41.652749 
z
" style="fill:#7f7f7f;stroke:#7f7f7f;stroke-linejoin:miter;stroke-width:2;"/>
   </g>
   <g id="patch_64">
    <path clip-path="url(#p6086f8b2a7)" d="M 231.711987 90.32 
L 232.246408 90.32 
L 232.246408 42.095072 
L 231.711987 42.095072 
z
" style="fill:#7f7f7f;stroke:#7f7f7f;stroke-linejoin:miter;stroke-width:2;"/>
   </g>
   <g id="patch_65">
    <path clip-path="url(#p6086f8b2a7)" d="M 234.384091 90.32 
L 234.918512 90.32 
L 234.918512 57.790725 
L 234.384091 57.790725 
z
" style="fill:#7f7f7f;stroke:#7f7f7f;stroke-linejoin:miter;stroke-width:2;"/>
   </g>
   <g id="patch_66">
    <path clip-path="url(#p6086f8b2a7)" d="M 237.056195 90.32 
L 237.590616 90.32 
L 237.590616 43.889648 
L 237.056195 43.889648 
z
" style="fill:#7f7f7f;stroke:#7f7f7f;stroke-linejoin:miter;stroke-width:2;"/>
   </g>
   <g id="patch_67">
    <path clip-path="url(#p6086f8b2a7)" d="M 239.728299 90.32 
L 240.26272 90.32 
L 240.26272 39.008801 
L 239.728299 39.008801 
z
" style="fill:#7f7f7f;stroke:#7f7f7f;stroke-linejoin:miter;stroke-width:2;"/>
   </g>
   <g id="patch_68">
    <path clip-path="url(#p6086f8b2a7)" d="M 242.400403 90.32 
L 242.934824 90.32 
L 242.934824 58.183911 
L 242.400403 58.183911 
z
" style="fill:#7f7f7f;stroke:#7f7f7f;stroke-linejoin:miter;stroke-width:2;"/>
   </g>
   <g id="patch_69">
    <path clip-path="url(#p6086f8b2a7)" d="M 245.072507 90.32 
L 245.606928 90.32 
L 245.606928 46.356294 
L 245.072507 46.356294 
z
" style="fill:#7f7f7f;stroke:#7f7f7f;stroke-linejoin:miter;stroke-width:2;"/>
   </g>
   <g id="patch_70">
    <path clip-path="url(#p6086f8b2a7)" d="M 247.744611 90.32 
L 248.279032 90.32 
L 248.279032 76.883845 
L 247.744611 76.883845 
z
" style="fill:#7f7f7f;stroke:#7f7f7f;stroke-linejoin:miter;stroke-width:2;"/>
   </g>
   <g id="patch_71">
    <path clip-path="url(#p6086f8b2a7)" d="M 250.416716 90.32 
L 250.951136 90.32 
L 250.951136 62.717377 
L 250.416716 62.717377 
z
" style="fill:#7f7f7f;stroke:#7f7f7f;stroke-linejoin:miter;stroke-width:2;"/>
   </g>
   <g id="patch_72">
    <path clip-path="url(#p6086f8b2a7)" d="M 253.08882 90.32 
L 253.62324 90.32 
L 253.62324 85.247773 
L 253.08882 85.247773 
z
" style="fill:#7f7f7f;stroke:#7f7f7f;stroke-linejoin:miter;stroke-width:2;"/>
   </g>
   <g id="patch_73">
    <path clip-path="url(#p6086f8b2a7)" d="M 255.760924 90.32 
L 256.295345 90.32 
L 256.295345 63.118499 
L 255.760924 63.118499 
z
" style="fill:#7f7f7f;stroke:#7f7f7f;stroke-linejoin:miter;stroke-width:2;"/>
   </g>
   <g id="patch_74">
    <path clip-path="url(#p6086f8b2a7)" d="M 258.433028 90.32 
L 258.967449 90.32 
L 258.967449 37.382591 
L 258.433028 37.382591 
z
" style="fill:#7f7f7f;stroke:#7f7f7f;stroke-linejoin:miter;stroke-width:2;"/>
   </g>
   <g id="patch_75">
    <path clip-path="url(#p6086f8b2a7)" d="M 261.105132 90.32 
L 261.639553 90.32 
L 261.639553 67.310179 
L 261.105132 67.310179 
z
" style="fill:#7f7f7f;stroke:#7f7f7f;stroke-linejoin:miter;stroke-width:2;"/>
   </g>
   <g id="patch_76">
    <path clip-path="url(#p6086f8b2a7)" d="M 263.777236 90.32 
L 264.311657 90.32 
L 264.311657 66.08659 
L 263.777236 66.08659 
z
" style="fill:#7f7f7f;stroke:#7f7f7f;stroke-linejoin:miter;stroke-width:2;"/>
   </g>
   <g id="patch_77">
    <path clip-path="url(#p6086f8b2a7)" d="M 266.44934 90.32 
L 266.983761 90.32 
L 266.983761 83.662104 
L 266.44934 83.662104 
z
" style="fill:#7f7f7f;stroke:#7f7f7f;stroke-linejoin:miter;stroke-width:2;"/>
   </g>
   <g id="patch_78">
    <path clip-path="url(#p6086f8b2a7)" d="M 269.121444 90.32 
L 269.655865 90.32 
L 269.655865 75.362278 
L 269.121444 75.362278 
z
" style="fill:#7f7f7f;stroke:#7f7f7f;stroke-linejoin:miter;stroke-width:2;"/>
   </g>
   <g id="patch_79">
    <path clip-path="url(#p6086f8b2a7)" d="M 271.793548 90.32 
L 272.327969 90.32 
L 272.327969 87.477412 
L 271.793548 87.477412 
z
" style="fill:#7f7f7f;stroke:#7f7f7f;stroke-linejoin:miter;stroke-width:2;"/>
   </g>
   <g id="patch_80">
    <path clip-path="url(#p6086f8b2a7)" d="M 274.465652 90.32 
L 275.000073 90.32 
L 275.000073 68.563219 
L 274.465652 68.563219 
z
" style="fill:#7f7f7f;stroke:#7f7f7f;stroke-linejoin:miter;stroke-width:2;"/>
   </g>
   <g id="patch_81">
    <path clip-path="url(#p6086f8b2a7)" d="M 277.137757 90.32 
L 277.672177 90.32 
L 277.672177 90.149427 
L 277.137757 90.149427 
z
" style="fill:#7f7f7f;stroke:#7f7f7f;stroke-linejoin:miter;stroke-width:2;"/>
   </g>
   <g id="patch_82">
    <path clip-path="url(#p6086f8b2a7)" d="M 279.809861 90.32 
L 280.344282 90.32 
L 280.344282 74.634611 
L 279.809861 74.634611 
z
" style="fill:#7f7f7f;stroke:#7f7f7f;stroke-linejoin:miter;stroke-width:2;"/>
   </g>
   <g id="patch_83">
    <path clip-path="url(#p6086f8b2a7)" d="M 282.481965 90.32 
L 283.016386 90.32 
L 283.016386 53.228763 
L 282.481965 53.228763 
z
" style="fill:#7f7f7f;stroke:#7f7f7f;stroke-linejoin:miter;stroke-width:2;"/>
   </g>
   <g id="patch_84">
    <path clip-path="url(#p6086f8b2a7)" d="M 285.154069 90.32 
L 285.68849 90.32 
L 285.68849 67.545894 
L 285.154069 67.545894 
z
" style="fill:#7f7f7f;stroke:#7f7f7f;stroke-linejoin:miter;stroke-width:2;"/>
   </g>
   <g id="patch_85">
    <path clip-path="url(#p6086f8b2a7)" d="M 287.826173 90.32 
L 288.360594 90.32 
L 288.360594 59.343795 
L 287.826173 59.343795 
z
" style="fill:#7f7f7f;stroke:#7f7f7f;stroke-linejoin:miter;stroke-width:2;"/>
   </g>
   <g id="patch_86">
    <path clip-path="url(#p6086f8b2a7)" d="M 290.498277 90.32 
L 291.032698 90.32 
L 291.032698 66.343409 
L 290.498277 66.343409 
z
" style="fill:#7f7f7f;stroke:#7f7f7f;stroke-linejoin:miter;stroke-width:2;"/>
   </g>
   <g id="patch_87">
    <path clip-path="url(#p6086f8b2a7)" d="M 293.170381 90.32 
L 293.704802 90.32 
L 293.704802 81.575126 
L 293.170381 81.575126 
z
" style="fill:#7f7f7f;stroke:#7f7f7f;stroke-linejoin:miter;stroke-width:2;"/>
   </g>
   <g id="patch_88">
    <path clip-path="url(#p6086f8b2a7)" d="M 295.842485 90.32 
L 296.376906 90.32 
L 296.376906 36.843408 
L 295.842485 36.843408 
z
" style="fill:#7f7f7f;stroke:#7f7f7f;stroke-linejoin:miter;stroke-width:2;"/>
   </g>
   <g id="patch_89">
    <path clip-path="url(#p6086f8b2a7)" d="M 298.514589 90.32 
L 299.04901 90.32 
L 299.04901 61.923532 
L 298.514589 61.923532 
z
" style="fill:#7f7f7f;stroke:#7f7f7f;stroke-linejoin:miter;stroke-width:2;"/>
   </g>
   <g id="patch_90">
    <path clip-path="url(#p6086f8b2a7)" d="M 301.186694 90.32 
L 301.721114 90.32 
L 301.721114 67.378987 
L 301.186694 67.378987 
z
" style="fill:#7f7f7f;stroke:#7f7f7f;stroke-linejoin:miter;stroke-width:2;"/>
   </g>
   <g id="patch_91">
    <path clip-path="url(#p6086f8b2a7)" d="M 303.858798 90.32 
L 304.393218 90.32 
L 304.393218 79.431113 
L 303.858798 79.431113 
z
" style="fill:#7f7f7f;stroke:#7f7f7f;stroke-linejoin:miter;stroke-width:2;"/>
   </g>
   <g id="patch_92">
    <path clip-path="url(#p6086f8b2a7)" d="M 306.530902 90.32 
L 307.065323 90.32 
L 307.065323 72.33119 
L 306.530902 72.33119 
z
" style="fill:#7f7f7f;stroke:#7f7f7f;stroke-linejoin:miter;stroke-width:2;"/>
   </g>
   <g id="patch_93">
    <path clip-path="url(#p6086f8b2a7)" d="M 309.203006 90.32 
L 309.737427 90.32 
L 309.737427 71.867811 
L 309.203006 71.867811 
z
" style="fill:#7f7f7f;stroke:#7f7f7f;stroke-linejoin:miter;stroke-width:2;"/>
   </g>
   <g id="patch_94">
    <path clip-path="url(#p6086f8b2a7)" d="M 311.87511 90.32 
L 312.409531 90.32 
L 312.409531 83.309154 
L 311.87511 83.309154 
z
" style="fill:#7f7f7f;stroke:#7f7f7f;stroke-linejoin:miter;stroke-width:2;"/>
   </g>
   <g id="patch_95">
    <path clip-path="url(#p6086f8b2a7)" d="M 314.547214 90.32 
L 315.081635 90.32 
L 315.081635 70.293815 
L 314.547214 70.293815 
z
" style="fill:#7f7f7f;stroke:#7f7f7f;stroke-linejoin:miter;stroke-width:2;"/>
   </g>
   <g id="patch_96">
    <path clip-path="url(#p6086f8b2a7)" d="M 317.219318 90.32 
L 317.753739 90.32 
L 317.753739 55.080114 
L 317.219318 55.080114 
z
" style="fill:#7f7f7f;stroke:#7f7f7f;stroke-linejoin:miter;stroke-width:2;"/>
   </g>
   <g id="patch_97">
    <path clip-path="url(#p6086f8b2a7)" d="M 319.891422 90.32 
L 320.425843 90.32 
L 320.425843 80.417762 
L 319.891422 80.417762 
z
" style="fill:#7f7f7f;stroke:#7f7f7f;stroke-linejoin:miter;stroke-width:2;"/>
   </g>
   <g id="patch_98">
    <path clip-path="url(#p6086f8b2a7)" d="M 322.563526 90.32 
L 323.097947 90.32 
L 323.097947 59.205137 
L 322.563526 59.205137 
z
" style="fill:#7f7f7f;stroke:#7f7f7f;stroke-linejoin:miter;stroke-width:2;"/>
   </g>
   <g id="patch_99">
    <path clip-path="url(#p6086f8b2a7)" d="M 325.23563 90.32 
L 325.770051 90.32 
L 325.770051 68.345942 
L 325.23563 68.345942 
z
" style="fill:#7f7f7f;stroke:#7f7f7f;stroke-linejoin:miter;stroke-width:2;"/>
   </g>
   <g id="patch_100">
    <path clip-path="url(#p6086f8b2a7)" d="M 327.907735 90.32 
L 328.442155 90.32 
L 328.442155 74.928553 
L 327.907735 74.928553 
z
" style="fill:#7f7f7f;stroke:#7f7f7f;stroke-linejoin:miter;stroke-width:2;"/>
   </g>
   <g id="patch_101">
    <path clip-path="url(#p6086f8b2a7)" d="M 330.579839 90.32 
L 331.11426 90.32 
L 331.11426 71.943046 
L 330.579839 71.943046 
z
" style="fill:#7f7f7f;stroke:#7f7f7f;stroke-linejoin:miter;stroke-width:2;"/>
   </g>
   <g id="patch_102">
    <path clip-path="url(#p6086f8b2a7)" d="M 333.251943 90.32 
L 333.786364 90.32 
L 333.786364 74.677652 
L 333.251943 74.677652 
z
" style="fill:#7f7f7f;stroke:#7f7f7f;stroke-linejoin:miter;stroke-width:2;"/>
   </g>
   <g id="patch_103">
    <path d="M 55.46 90.32 
L 55.46 25.92 
" style="fill:none;stroke:#262626;stroke-linecap:square;stroke-linejoin:miter;stroke-width:2.5;"/>
   </g>
   <g id="patch_104">
    <path d="M 347.04 90.32 
L 347.04 25.92 
" style="fill:none;stroke:#262626;stroke-linecap:square;stroke-linejoin:miter;stroke-width:2.5;"/>
   </g>
   <g id="patch_105">
    <path d="M 55.46 90.32 
L 347.04 90.32 
" style="fill:none;stroke:#262626;stroke-linecap:square;stroke-linejoin:miter;stroke-width:2.5;"/>
   </g>
   <g id="patch_106">
    <path d="M 55.46 25.92 
L 347.04 25.92 
" style="fill:none;stroke:#262626;stroke-linecap:square;stroke-linejoin:miter;stroke-width:2.5;"/>
   </g>
  </g>
  <g id="axes_2">
   <g id="patch_107">
    <path d="M 402.5 90.32 
L 694.08 90.32 
L 694.08 25.92 
L 402.5 25.92 
z
" style="fill:#ffffff;"/>
   </g>
   <g id="matplotlib.axis_3">
    <g id="text_4">
     <!-- genes -->
     <g style="fill:#262626;" transform="translate(512.048125 112.55625)scale(0.24 -0.24)">
      <use xlink:href="#DejaVuSans-103"/>
      <use x="63.476562" xlink:href="#DejaVuSans-101"/>
      <use x="125" xlink:href="#DejaVuSans-110"/>
      <use x="188.378906" xlink:href="#DejaVuSans-101"/>
      <use x="249.902344" xlink:href="#DejaVuSans-115"/>
     </g>
    </g>
   </g>
   <g id="matplotlib.axis_4">
    <g id="ytick_3">
     <g id="line2d_3">
      <g>
       <use style="fill:#262626;stroke:#262626;stroke-width:2.5;" x="402.5" xlink:href="#m6f0b0d6a85" y="90.32"/>
      </g>
     </g>
     <g id="text_5">
      <!-- 0 -->
      <g style="fill:#262626;" transform="translate(373.0025 98.678281)scale(0.22 -0.22)">
       <use xlink:href="#DejaVuSans-48"/>
      </g>
     </g>
    </g>
    <g id="ytick_4">
     <g id="line2d_4">
      <g>
       <use style="fill:#262626;stroke:#262626;stroke-width:2.5;" x="402.5" xlink:href="#m6f0b0d6a85" y="36.653333"/>
      </g>
     </g>
     <g id="text_6">
      <!-- 1 -->
      <g style="fill:#262626;" transform="translate(373.0025 45.011615)scale(0.22 -0.22)">
       <use xlink:href="#DejaVuSans-49"/>
      </g>
     </g>
    </g>
   </g>
   <g id="patch_108">
    <path clip-path="url(#pa17b616c49)" d="M 415.753636 90.32 
L 416.288057 90.32 
L 416.288057 73.924801 
L 415.753636 73.924801 
z
" style="fill:#7f7f7f;stroke:#7f7f7f;stroke-linejoin:miter;stroke-width:2;"/>
   </g>
   <g id="patch_109">
    <path clip-path="url(#pa17b616c49)" d="M 418.42574 90.32 
L 418.960161 90.32 
L 418.960161 75.798006 
L 418.42574 75.798006 
z
" style="fill:#7f7f7f;stroke:#7f7f7f;stroke-linejoin:miter;stroke-width:2;"/>
   </g>
   <g id="patch_110">
    <path clip-path="url(#pa17b616c49)" d="M 421.097845 90.32 
L 421.632265 90.32 
L 421.632265 86.847059 
L 421.097845 86.847059 
z
" style="fill:#7f7f7f;stroke:#7f7f7f;stroke-linejoin:miter;stroke-width:2;"/>
   </g>
   <g id="patch_111">
    <path clip-path="url(#pa17b616c49)" d="M 423.769949 90.32 
L 424.30437 90.32 
L 424.30437 47.458299 
L 423.769949 47.458299 
z
" style="fill:#7f7f7f;stroke:#7f7f7f;stroke-linejoin:miter;stroke-width:2;"/>
   </g>
   <g id="patch_112">
    <path clip-path="url(#pa17b616c49)" d="M 426.442053 90.32 
L 426.976474 90.32 
L 426.976474 73.273796 
L 426.442053 73.273796 
z
" style="fill:#7f7f7f;stroke:#7f7f7f;stroke-linejoin:miter;stroke-width:2;"/>
   </g>
   <g id="patch_113">
    <path clip-path="url(#pa17b616c49)" d="M 429.114157 90.32 
L 429.648578 90.32 
L 429.648578 42.356102 
L 429.114157 42.356102 
z
" style="fill:#7f7f7f;stroke:#7f7f7f;stroke-linejoin:miter;stroke-width:2;"/>
   </g>
   <g id="patch_114">
    <path clip-path="url(#pa17b616c49)" d="M 431.786261 90.32 
L 432.320682 90.32 
L 432.320682 36.653333 
L 431.786261 36.653333 
z
" style="fill:#7f7f7f;stroke:#7f7f7f;stroke-linejoin:miter;stroke-width:2;"/>
   </g>
   <g id="patch_115">
    <path clip-path="url(#pa17b616c49)" d="M 434.458365 90.32 
L 434.992786 90.32 
L 434.992786 72.124807 
L 434.458365 72.124807 
z
" style="fill:#7f7f7f;stroke:#7f7f7f;stroke-linejoin:miter;stroke-width:2;"/>
   </g>
   <g id="patch_116">
    <path clip-path="url(#pa17b616c49)" d="M 437.130469 90.32 
L 437.66489 90.32 
L 437.66489 87.825351 
L 437.130469 87.825351 
z
" style="fill:#7f7f7f;stroke:#7f7f7f;stroke-linejoin:miter;stroke-width:2;"/>
   </g>
   <g id="patch_117">
    <path clip-path="url(#pa17b616c49)" d="M 439.802573 90.32 
L 440.336994 90.32 
L 440.336994 71.723429 
L 439.802573 71.723429 
z
" style="fill:#7f7f7f;stroke:#7f7f7f;stroke-linejoin:miter;stroke-width:2;"/>
   </g>
   <g id="patch_118">
    <path clip-path="url(#pa17b616c49)" d="M 442.474677 90.32 
L 443.009098 90.32 
L 443.009098 39.355518 
L 442.474677 39.355518 
z
" style="fill:#7f7f7f;stroke:#7f7f7f;stroke-linejoin:miter;stroke-width:2;"/>
   </g>
   <g id="patch_119">
    <path clip-path="url(#pa17b616c49)" d="M 445.146782 90.32 
L 445.681202 90.32 
L 445.681202 36.653333 
L 445.146782 36.653333 
z
" style="fill:#7f7f7f;stroke:#7f7f7f;stroke-linejoin:miter;stroke-width:2;"/>
   </g>
   <g id="patch_120">
    <path clip-path="url(#pa17b616c49)" d="M 447.818886 90.32 
L 448.353306 90.32 
L 448.353306 59.254493 
L 447.818886 59.254493 
z
" style="fill:#7f7f7f;stroke:#7f7f7f;stroke-linejoin:miter;stroke-width:2;"/>
   </g>
   <g id="patch_121">
    <path clip-path="url(#pa17b616c49)" d="M 450.49099 90.32 
L 451.025411 90.32 
L 451.025411 68.095914 
L 450.49099 68.095914 
z
" style="fill:#7f7f7f;stroke:#7f7f7f;stroke-linejoin:miter;stroke-width:2;"/>
   </g>
   <g id="patch_122">
    <path clip-path="url(#pa17b616c49)" d="M 453.163094 90.32 
L 453.697515 90.32 
L 453.697515 69.984919 
L 453.163094 69.984919 
z
" style="fill:#7f7f7f;stroke:#7f7f7f;stroke-linejoin:miter;stroke-width:2;"/>
   </g>
   <g id="patch_123">
    <path clip-path="url(#pa17b616c49)" d="M 455.835198 90.32 
L 456.369619 90.32 
L 456.369619 60.496657 
L 455.835198 60.496657 
z
" style="fill:#7f7f7f;stroke:#7f7f7f;stroke-linejoin:miter;stroke-width:2;"/>
   </g>
   <g id="patch_124">
    <path clip-path="url(#pa17b616c49)" d="M 458.507302 90.32 
L 459.041723 90.32 
L 459.041723 61.543555 
L 458.507302 61.543555 
z
" style="fill:#7f7f7f;stroke:#7f7f7f;stroke-linejoin:miter;stroke-width:2;"/>
   </g>
   <g id="patch_125">
    <path clip-path="url(#pa17b616c49)" d="M 461.179406 90.32 
L 461.713827 90.32 
L 461.713827 40.047751 
L 461.179406 40.047751 
z
" style="fill:#7f7f7f;stroke:#7f7f7f;stroke-linejoin:miter;stroke-width:2;"/>
   </g>
   <g id="patch_126">
    <path clip-path="url(#pa17b616c49)" d="M 463.85151 90.32 
L 464.385931 90.32 
L 464.385931 62.822052 
L 463.85151 62.822052 
z
" style="fill:#7f7f7f;stroke:#7f7f7f;stroke-linejoin:miter;stroke-width:2;"/>
   </g>
   <g id="patch_127">
    <path clip-path="url(#pa17b616c49)" d="M 466.523614 90.32 
L 467.058035 90.32 
L 467.058035 78.743927 
L 466.523614 78.743927 
z
" style="fill:#7f7f7f;stroke:#7f7f7f;stroke-linejoin:miter;stroke-width:2;"/>
   </g>
   <g id="patch_128">
    <path clip-path="url(#pa17b616c49)" d="M 469.195718 90.32 
L 469.730139 90.32 
L 469.730139 41.491397 
L 469.195718 41.491397 
z
" style="fill:#7f7f7f;stroke:#7f7f7f;stroke-linejoin:miter;stroke-width:2;"/>
   </g>
   <g id="patch_129">
    <path clip-path="url(#pa17b616c49)" d="M 471.867823 90.32 
L 472.402243 90.32 
L 472.402243 46.4953 
L 471.867823 46.4953 
z
" style="fill:#7f7f7f;stroke:#7f7f7f;stroke-linejoin:miter;stroke-width:2;"/>
   </g>
   <g id="patch_130">
    <path clip-path="url(#pa17b616c49)" d="M 474.539927 90.32 
L 475.074348 90.32 
L 475.074348 62.876863 
L 474.539927 62.876863 
z
" style="fill:#7f7f7f;stroke:#7f7f7f;stroke-linejoin:miter;stroke-width:2;"/>
   </g>
   <g id="patch_131">
    <path clip-path="url(#pa17b616c49)" d="M 477.212031 90.32 
L 477.746452 90.32 
L 477.746452 68.594301 
L 477.212031 68.594301 
z
" style="fill:#7f7f7f;stroke:#7f7f7f;stroke-linejoin:miter;stroke-width:2;"/>
   </g>
   <g id="patch_132">
    <path clip-path="url(#pa17b616c49)" d="M 479.884135 90.32 
L 480.418556 90.32 
L 480.418556 51.003885 
L 479.884135 51.003885 
z
" style="fill:#7f7f7f;stroke:#7f7f7f;stroke-linejoin:miter;stroke-width:2;"/>
   </g>
   <g id="patch_133">
    <path clip-path="url(#pa17b616c49)" d="M 482.556239 90.32 
L 483.09066 90.32 
L 483.09066 80.433257 
L 482.556239 80.433257 
z
" style="fill:#7f7f7f;stroke:#7f7f7f;stroke-linejoin:miter;stroke-width:2;"/>
   </g>
   <g id="patch_134">
    <path clip-path="url(#pa17b616c49)" d="M 485.228343 90.32 
L 485.762764 90.32 
L 485.762764 68.360474 
L 485.228343 68.360474 
z
" style="fill:#7f7f7f;stroke:#7f7f7f;stroke-linejoin:miter;stroke-width:2;"/>
   </g>
   <g id="patch_135">
    <path clip-path="url(#pa17b616c49)" d="M 487.900447 90.32 
L 488.434868 90.32 
L 488.434868 58.455438 
L 487.900447 58.455438 
z
" style="fill:#7f7f7f;stroke:#7f7f7f;stroke-linejoin:miter;stroke-width:2;"/>
   </g>
   <g id="patch_136">
    <path clip-path="url(#pa17b616c49)" d="M 490.572551 90.32 
L 491.106972 90.32 
L 491.106972 74.510205 
L 490.572551 74.510205 
z
" style="fill:#7f7f7f;stroke:#7f7f7f;stroke-linejoin:miter;stroke-width:2;"/>
   </g>
   <g id="patch_137">
    <path clip-path="url(#pa17b616c49)" d="M 493.244655 90.32 
L 493.779076 90.32 
L 493.779076 62.591939 
L 493.244655 62.591939 
z
" style="fill:#7f7f7f;stroke:#7f7f7f;stroke-linejoin:miter;stroke-width:2;"/>
   </g>
   <g id="patch_138">
    <path clip-path="url(#pa17b616c49)" d="M 495.91676 90.32 
L 496.45118 90.32 
L 496.45118 44.993391 
L 495.91676 44.993391 
z
" style="fill:#1f77b4;stroke:#1f77b4;stroke-linejoin:miter;stroke-width:2;"/>
   </g>
   <g id="patch_139">
    <path clip-path="url(#pa17b616c49)" d="M 498.588864 90.32 
L 499.123284 90.32 
L 499.123284 38.797381 
L 498.588864 38.797381 
z
" style="fill:#1f77b4;stroke:#1f77b4;stroke-linejoin:miter;stroke-width:2;"/>
   </g>
   <g id="patch_140">
    <path clip-path="url(#pa17b616c49)" d="M 501.260968 90.32 
L 501.795389 90.32 
L 501.795389 48.204731 
L 501.260968 48.204731 
z
" style="fill:#1f77b4;stroke:#1f77b4;stroke-linejoin:miter;stroke-width:2;"/>
   </g>
   <g id="patch_141">
    <path clip-path="url(#pa17b616c49)" d="M 503.933072 90.32 
L 504.467493 90.32 
L 504.467493 49.402965 
L 503.933072 49.402965 
z
" style="fill:#1f77b4;stroke:#1f77b4;stroke-linejoin:miter;stroke-width:2;"/>
   </g>
   <g id="patch_142">
    <path clip-path="url(#pa17b616c49)" d="M 506.605176 90.32 
L 507.139597 90.32 
L 507.139597 47.834378 
L 506.605176 47.834378 
z
" style="fill:#1f77b4;stroke:#1f77b4;stroke-linejoin:miter;stroke-width:2;"/>
   </g>
   <g id="patch_143">
    <path clip-path="url(#pa17b616c49)" d="M 509.27728 90.32 
L 509.811701 90.32 
L 509.811701 39.841589 
L 509.27728 39.841589 
z
" style="fill:#1f77b4;stroke:#1f77b4;stroke-linejoin:miter;stroke-width:2;"/>
   </g>
   <g id="patch_144">
    <path clip-path="url(#pa17b616c49)" d="M 511.949384 90.32 
L 512.483805 90.32 
L 512.483805 52.909095 
L 511.949384 52.909095 
z
" style="fill:#1f77b4;stroke:#1f77b4;stroke-linejoin:miter;stroke-width:2;"/>
   </g>
   <g id="patch_145">
    <path clip-path="url(#pa17b616c49)" d="M 514.621488 90.32 
L 515.155909 90.32 
L 515.155909 52.056896 
L 514.621488 52.056896 
z
" style="fill:#1f77b4;stroke:#1f77b4;stroke-linejoin:miter;stroke-width:2;"/>
   </g>
   <g id="patch_146">
    <path clip-path="url(#pa17b616c49)" d="M 517.293592 90.32 
L 517.828013 90.32 
L 517.828013 48.492991 
L 517.293592 48.492991 
z
" style="fill:#1f77b4;stroke:#1f77b4;stroke-linejoin:miter;stroke-width:2;"/>
   </g>
   <g id="patch_147">
    <path clip-path="url(#pa17b616c49)" d="M 519.965696 90.32 
L 520.500117 90.32 
L 520.500117 55.692572 
L 519.965696 55.692572 
z
" style="fill:#1f77b4;stroke:#1f77b4;stroke-linejoin:miter;stroke-width:2;"/>
   </g>
   <g id="patch_148">
    <path clip-path="url(#pa17b616c49)" d="M 522.637801 90.32 
L 523.172221 90.32 
L 523.172221 40.62414 
L 522.637801 40.62414 
z
" style="fill:#1f77b4;stroke:#1f77b4;stroke-linejoin:miter;stroke-width:2;"/>
   </g>
   <g id="patch_149">
    <path clip-path="url(#pa17b616c49)" d="M 525.309905 90.32 
L 525.844326 90.32 
L 525.844326 58.567873 
L 525.309905 58.567873 
z
" style="fill:#1f77b4;stroke:#1f77b4;stroke-linejoin:miter;stroke-width:2;"/>
   </g>
   <g id="patch_150">
    <path clip-path="url(#pa17b616c49)" d="M 527.982009 90.32 
L 528.51643 90.32 
L 528.51643 57.634014 
L 527.982009 57.634014 
z
" style="fill:#1f77b4;stroke:#1f77b4;stroke-linejoin:miter;stroke-width:2;"/>
   </g>
   <g id="patch_151">
    <path clip-path="url(#pa17b616c49)" d="M 530.654113 90.32 
L 531.188534 90.32 
L 531.188534 41.463945 
L 530.654113 41.463945 
z
" style="fill:#1f77b4;stroke:#1f77b4;stroke-linejoin:miter;stroke-width:2;"/>
   </g>
   <g id="patch_152">
    <path clip-path="url(#pa17b616c49)" d="M 533.326217 90.32 
L 533.860638 90.32 
L 533.860638 59.064049 
L 533.326217 59.064049 
z
" style="fill:#1f77b4;stroke:#1f77b4;stroke-linejoin:miter;stroke-width:2;"/>
   </g>
   <g id="patch_153">
    <path clip-path="url(#pa17b616c49)" d="M 535.998321 90.32 
L 536.532742 90.32 
L 536.532742 36.653333 
L 535.998321 36.653333 
z
" style="fill:#1f77b4;stroke:#1f77b4;stroke-linejoin:miter;stroke-width:2;"/>
   </g>
   <g id="patch_154">
    <path clip-path="url(#pa17b616c49)" d="M 538.670425 90.32 
L 539.204846 90.32 
L 539.204846 45.138689 
L 538.670425 45.138689 
z
" style="fill:#1f77b4;stroke:#1f77b4;stroke-linejoin:miter;stroke-width:2;"/>
   </g>
   <g id="patch_155">
    <path clip-path="url(#pa17b616c49)" d="M 541.342529 90.32 
L 541.87695 90.32 
L 541.87695 43.457891 
L 541.342529 43.457891 
z
" style="fill:#1f77b4;stroke:#1f77b4;stroke-linejoin:miter;stroke-width:2;"/>
   </g>
   <g id="patch_156">
    <path clip-path="url(#pa17b616c49)" d="M 544.014633 90.32 
L 544.549054 90.32 
L 544.549054 56.390443 
L 544.014633 56.390443 
z
" style="fill:#1f77b4;stroke:#1f77b4;stroke-linejoin:miter;stroke-width:2;"/>
   </g>
   <g id="patch_157">
    <path clip-path="url(#pa17b616c49)" d="M 546.686738 90.32 
L 547.221158 90.32 
L 547.221158 46.868835 
L 546.686738 46.868835 
z
" style="fill:#1f77b4;stroke:#1f77b4;stroke-linejoin:miter;stroke-width:2;"/>
   </g>
   <g id="patch_158">
    <path clip-path="url(#pa17b616c49)" d="M 549.358842 90.32 
L 549.893262 90.32 
L 549.893262 51.009262 
L 549.358842 51.009262 
z
" style="fill:#1f77b4;stroke:#1f77b4;stroke-linejoin:miter;stroke-width:2;"/>
   </g>
   <g id="patch_159">
    <path clip-path="url(#pa17b616c49)" d="M 552.030946 90.32 
L 552.565367 90.32 
L 552.565367 50.953998 
L 552.030946 50.953998 
z
" style="fill:#1f77b4;stroke:#1f77b4;stroke-linejoin:miter;stroke-width:2;"/>
   </g>
   <g id="patch_160">
    <path clip-path="url(#pa17b616c49)" d="M 554.70305 90.32 
L 555.237471 90.32 
L 555.237471 50.867902 
L 554.70305 50.867902 
z
" style="fill:#1f77b4;stroke:#1f77b4;stroke-linejoin:miter;stroke-width:2;"/>
   </g>
   <g id="patch_161">
    <path clip-path="url(#pa17b616c49)" d="M 557.375154 90.32 
L 557.909575 90.32 
L 557.909575 37.484414 
L 557.375154 37.484414 
z
" style="fill:#1f77b4;stroke:#1f77b4;stroke-linejoin:miter;stroke-width:2;"/>
   </g>
   <g id="patch_162">
    <path clip-path="url(#pa17b616c49)" d="M 560.047258 90.32 
L 560.581679 90.32 
L 560.581679 54.939969 
L 560.047258 54.939969 
z
" style="fill:#1f77b4;stroke:#1f77b4;stroke-linejoin:miter;stroke-width:2;"/>
   </g>
   <g id="patch_163">
    <path clip-path="url(#pa17b616c49)" d="M 562.719362 90.32 
L 563.253783 90.32 
L 563.253783 39.789814 
L 562.719362 39.789814 
z
" style="fill:#1f77b4;stroke:#1f77b4;stroke-linejoin:miter;stroke-width:2;"/>
   </g>
   <g id="patch_164">
    <path clip-path="url(#pa17b616c49)" d="M 565.391466 90.32 
L 565.925887 90.32 
L 565.925887 53.56694 
L 565.391466 53.56694 
z
" style="fill:#1f77b4;stroke:#1f77b4;stroke-linejoin:miter;stroke-width:2;"/>
   </g>
   <g id="patch_165">
    <path clip-path="url(#pa17b616c49)" d="M 568.06357 90.32 
L 568.597991 90.32 
L 568.597991 63.386504 
L 568.06357 63.386504 
z
" style="fill:#1f77b4;stroke:#1f77b4;stroke-linejoin:miter;stroke-width:2;"/>
   </g>
   <g id="patch_166">
    <path clip-path="url(#pa17b616c49)" d="M 570.735674 90.32 
L 571.270095 90.32 
L 571.270095 44.26935 
L 570.735674 44.26935 
z
" style="fill:#1f77b4;stroke:#1f77b4;stroke-linejoin:miter;stroke-width:2;"/>
   </g>
   <g id="patch_167">
    <path clip-path="url(#pa17b616c49)" d="M 573.407779 90.32 
L 573.942199 90.32 
L 573.942199 40.802833 
L 573.407779 40.802833 
z
" style="fill:#1f77b4;stroke:#1f77b4;stroke-linejoin:miter;stroke-width:2;"/>
   </g>
   <g id="patch_168">
    <path clip-path="url(#pa17b616c49)" d="M 576.079883 90.32 
L 576.614304 90.32 
L 576.614304 46.516557 
L 576.079883 46.516557 
z
" style="fill:#7f7f7f;stroke:#7f7f7f;stroke-linejoin:miter;stroke-width:2;"/>
   </g>
   <g id="patch_169">
    <path clip-path="url(#pa17b616c49)" d="M 578.751987 90.32 
L 579.286408 90.32 
L 579.286408 38.226803 
L 578.751987 38.226803 
z
" style="fill:#7f7f7f;stroke:#7f7f7f;stroke-linejoin:miter;stroke-width:2;"/>
   </g>
   <g id="patch_170">
    <path clip-path="url(#pa17b616c49)" d="M 581.424091 90.32 
L 581.958512 90.32 
L 581.958512 57.286354 
L 581.424091 57.286354 
z
" style="fill:#7f7f7f;stroke:#7f7f7f;stroke-linejoin:miter;stroke-width:2;"/>
   </g>
   <g id="patch_171">
    <path clip-path="url(#pa17b616c49)" d="M 584.096195 90.32 
L 584.630616 90.32 
L 584.630616 46.047105 
L 584.096195 46.047105 
z
" style="fill:#7f7f7f;stroke:#7f7f7f;stroke-linejoin:miter;stroke-width:2;"/>
   </g>
   <g id="patch_172">
    <path clip-path="url(#pa17b616c49)" d="M 586.768299 90.32 
L 587.30272 90.32 
L 587.30272 37.106425 
L 586.768299 37.106425 
z
" style="fill:#7f7f7f;stroke:#7f7f7f;stroke-linejoin:miter;stroke-width:2;"/>
   </g>
   <g id="patch_173">
    <path clip-path="url(#pa17b616c49)" d="M 589.440403 90.32 
L 589.974824 90.32 
L 589.974824 54.818427 
L 589.440403 54.818427 
z
" style="fill:#7f7f7f;stroke:#7f7f7f;stroke-linejoin:miter;stroke-width:2;"/>
   </g>
   <g id="patch_174">
    <path clip-path="url(#pa17b616c49)" d="M 592.112507 90.32 
L 592.646928 90.32 
L 592.646928 40.87844 
L 592.112507 40.87844 
z
" style="fill:#7f7f7f;stroke:#7f7f7f;stroke-linejoin:miter;stroke-width:2;"/>
   </g>
   <g id="patch_175">
    <path clip-path="url(#pa17b616c49)" d="M 594.784611 90.32 
L 595.319032 90.32 
L 595.319032 77.846965 
L 594.784611 77.846965 
z
" style="fill:#7f7f7f;stroke:#7f7f7f;stroke-linejoin:miter;stroke-width:2;"/>
   </g>
   <g id="patch_176">
    <path clip-path="url(#pa17b616c49)" d="M 597.456716 90.32 
L 597.991136 90.32 
L 597.991136 62.719396 
L 597.456716 62.719396 
z
" style="fill:#7f7f7f;stroke:#7f7f7f;stroke-linejoin:miter;stroke-width:2;"/>
   </g>
   <g id="patch_177">
    <path clip-path="url(#pa17b616c49)" d="M 600.12882 90.32 
L 600.66324 90.32 
L 600.66324 84.432196 
L 600.12882 84.432196 
z
" style="fill:#7f7f7f;stroke:#7f7f7f;stroke-linejoin:miter;stroke-width:2;"/>
   </g>
   <g id="patch_178">
    <path clip-path="url(#pa17b616c49)" d="M 602.800924 90.32 
L 603.335345 90.32 
L 603.335345 61.692335 
L 602.800924 61.692335 
z
" style="fill:#7f7f7f;stroke:#7f7f7f;stroke-linejoin:miter;stroke-width:2;"/>
   </g>
   <g id="patch_179">
    <path clip-path="url(#pa17b616c49)" d="M 605.473028 90.32 
L 606.007449 90.32 
L 606.007449 36.653333 
L 605.473028 36.653333 
z
" style="fill:#7f7f7f;stroke:#7f7f7f;stroke-linejoin:miter;stroke-width:2;"/>
   </g>
   <g id="patch_180">
    <path clip-path="url(#pa17b616c49)" d="M 608.145132 90.32 
L 608.679553 90.32 
L 608.679553 69.582838 
L 608.145132 69.582838 
z
" style="fill:#7f7f7f;stroke:#7f7f7f;stroke-linejoin:miter;stroke-width:2;"/>
   </g>
   <g id="patch_181">
    <path clip-path="url(#pa17b616c49)" d="M 610.817236 90.32 
L 611.351657 90.32 
L 611.351657 66.576214 
L 610.817236 66.576214 
z
" style="fill:#7f7f7f;stroke:#7f7f7f;stroke-linejoin:miter;stroke-width:2;"/>
   </g>
   <g id="patch_182">
    <path clip-path="url(#pa17b616c49)" d="M 613.48934 90.32 
L 614.023761 90.32 
L 614.023761 82.272032 
L 613.48934 82.272032 
z
" style="fill:#7f7f7f;stroke:#7f7f7f;stroke-linejoin:miter;stroke-width:2;"/>
   </g>
   <g id="patch_183">
    <path clip-path="url(#pa17b616c49)" d="M 616.161444 90.32 
L 616.695865 90.32 
L 616.695865 74.81904 
L 616.161444 74.81904 
z
" style="fill:#7f7f7f;stroke:#7f7f7f;stroke-linejoin:miter;stroke-width:2;"/>
   </g>
   <g id="patch_184">
    <path clip-path="url(#pa17b616c49)" d="M 618.833548 90.32 
L 619.367969 90.32 
L 619.367969 87.778848 
L 618.833548 87.778848 
z
" style="fill:#7f7f7f;stroke:#7f7f7f;stroke-linejoin:miter;stroke-width:2;"/>
   </g>
   <g id="patch_185">
    <path clip-path="url(#pa17b616c49)" d="M 621.505652 90.32 
L 622.040073 90.32 
L 622.040073 70.233266 
L 621.505652 70.233266 
z
" style="fill:#7f7f7f;stroke:#7f7f7f;stroke-linejoin:miter;stroke-width:2;"/>
   </g>
   <g id="patch_186">
    <path clip-path="url(#pa17b616c49)" d="M 624.177757 90.32 
L 624.712177 90.32 
L 624.712177 90.153446 
L 624.177757 90.153446 
z
" style="fill:#7f7f7f;stroke:#7f7f7f;stroke-linejoin:miter;stroke-width:2;"/>
   </g>
   <g id="patch_187">
    <path clip-path="url(#pa17b616c49)" d="M 626.849861 90.32 
L 627.384282 90.32 
L 627.384282 75.2697 
L 626.849861 75.2697 
z
" style="fill:#7f7f7f;stroke:#7f7f7f;stroke-linejoin:miter;stroke-width:2;"/>
   </g>
   <g id="patch_188">
    <path clip-path="url(#pa17b616c49)" d="M 629.521965 90.32 
L 630.056386 90.32 
L 630.056386 56.069612 
L 629.521965 56.069612 
z
" style="fill:#7f7f7f;stroke:#7f7f7f;stroke-linejoin:miter;stroke-width:2;"/>
   </g>
   <g id="patch_189">
    <path clip-path="url(#pa17b616c49)" d="M 632.194069 90.32 
L 632.72849 90.32 
L 632.72849 66.463069 
L 632.194069 66.463069 
z
" style="fill:#7f7f7f;stroke:#7f7f7f;stroke-linejoin:miter;stroke-width:2;"/>
   </g>
   <g id="patch_190">
    <path clip-path="url(#pa17b616c49)" d="M 634.866173 90.32 
L 635.400594 90.32 
L 635.400594 58.497318 
L 634.866173 58.497318 
z
" style="fill:#7f7f7f;stroke:#7f7f7f;stroke-linejoin:miter;stroke-width:2;"/>
   </g>
   <g id="patch_191">
    <path clip-path="url(#pa17b616c49)" d="M 637.538277 90.32 
L 638.072698 90.32 
L 638.072698 70.560849 
L 637.538277 70.560849 
z
" style="fill:#7f7f7f;stroke:#7f7f7f;stroke-linejoin:miter;stroke-width:2;"/>
   </g>
   <g id="patch_192">
    <path clip-path="url(#pa17b616c49)" d="M 640.210381 90.32 
L 640.744802 90.32 
L 640.744802 82.112269 
L 640.210381 82.112269 
z
" style="fill:#7f7f7f;stroke:#7f7f7f;stroke-linejoin:miter;stroke-width:2;"/>
   </g>
   <g id="patch_193">
    <path clip-path="url(#pa17b616c49)" d="M 642.882485 90.32 
L 643.416906 90.32 
L 643.416906 37.515083 
L 642.882485 37.515083 
z
" style="fill:#7f7f7f;stroke:#7f7f7f;stroke-linejoin:miter;stroke-width:2;"/>
   </g>
   <g id="patch_194">
    <path clip-path="url(#pa17b616c49)" d="M 645.554589 90.32 
L 646.08901 90.32 
L 646.08901 65.877287 
L 645.554589 65.877287 
z
" style="fill:#7f7f7f;stroke:#7f7f7f;stroke-linejoin:miter;stroke-width:2;"/>
   </g>
   <g id="patch_195">
    <path clip-path="url(#pa17b616c49)" d="M 648.226694 90.32 
L 648.761114 90.32 
L 648.761114 65.35624 
L 648.226694 65.35624 
z
" style="fill:#7f7f7f;stroke:#7f7f7f;stroke-linejoin:miter;stroke-width:2;"/>
   </g>
   <g id="patch_196">
    <path clip-path="url(#pa17b616c49)" d="M 650.898798 90.32 
L 651.433218 90.32 
L 651.433218 80.369899 
L 650.898798 80.369899 
z
" style="fill:#7f7f7f;stroke:#7f7f7f;stroke-linejoin:miter;stroke-width:2;"/>
   </g>
   <g id="patch_197">
    <path clip-path="url(#pa17b616c49)" d="M 653.570902 90.32 
L 654.105323 90.32 
L 654.105323 72.736329 
L 653.570902 72.736329 
z
" style="fill:#7f7f7f;stroke:#7f7f7f;stroke-linejoin:miter;stroke-width:2;"/>
   </g>
   <g id="patch_198">
    <path clip-path="url(#pa17b616c49)" d="M 656.243006 90.32 
L 656.777427 90.32 
L 656.777427 72.031909 
L 656.243006 72.031909 
z
" style="fill:#7f7f7f;stroke:#7f7f7f;stroke-linejoin:miter;stroke-width:2;"/>
   </g>
   <g id="patch_199">
    <path clip-path="url(#pa17b616c49)" d="M 658.91511 90.32 
L 659.449531 90.32 
L 659.449531 83.591566 
L 658.91511 83.591566 
z
" style="fill:#7f7f7f;stroke:#7f7f7f;stroke-linejoin:miter;stroke-width:2;"/>
   </g>
   <g id="patch_200">
    <path clip-path="url(#pa17b616c49)" d="M 661.587214 90.32 
L 662.121635 90.32 
L 662.121635 71.937845 
L 661.587214 71.937845 
z
" style="fill:#7f7f7f;stroke:#7f7f7f;stroke-linejoin:miter;stroke-width:2;"/>
   </g>
   <g id="patch_201">
    <path clip-path="url(#pa17b616c49)" d="M 664.259318 90.32 
L 664.793739 90.32 
L 664.793739 58.958095 
L 664.259318 58.958095 
z
" style="fill:#7f7f7f;stroke:#7f7f7f;stroke-linejoin:miter;stroke-width:2;"/>
   </g>
   <g id="patch_202">
    <path clip-path="url(#pa17b616c49)" d="M 666.931422 90.32 
L 667.465843 90.32 
L 667.465843 81.340825 
L 666.931422 81.340825 
z
" style="fill:#7f7f7f;stroke:#7f7f7f;stroke-linejoin:miter;stroke-width:2;"/>
   </g>
   <g id="patch_203">
    <path clip-path="url(#pa17b616c49)" d="M 669.603526 90.32 
L 670.137947 90.32 
L 670.137947 61.296493 
L 669.603526 61.296493 
z
" style="fill:#7f7f7f;stroke:#7f7f7f;stroke-linejoin:miter;stroke-width:2;"/>
   </g>
   <g id="patch_204">
    <path clip-path="url(#pa17b616c49)" d="M 672.27563 90.32 
L 672.810051 90.32 
L 672.810051 67.142749 
L 672.27563 67.142749 
z
" style="fill:#7f7f7f;stroke:#7f7f7f;stroke-linejoin:miter;stroke-width:2;"/>
   </g>
   <g id="patch_205">
    <path clip-path="url(#pa17b616c49)" d="M 674.947735 90.32 
L 675.482155 90.32 
L 675.482155 72.588781 
L 674.947735 72.588781 
z
" style="fill:#7f7f7f;stroke:#7f7f7f;stroke-linejoin:miter;stroke-width:2;"/>
   </g>
   <g id="patch_206">
    <path clip-path="url(#pa17b616c49)" d="M 677.619839 90.32 
L 678.15426 90.32 
L 678.15426 69.817351 
L 677.619839 69.817351 
z
" style="fill:#7f7f7f;stroke:#7f7f7f;stroke-linejoin:miter;stroke-width:2;"/>
   </g>
   <g id="patch_207">
    <path clip-path="url(#pa17b616c49)" d="M 680.291943 90.32 
L 680.826364 90.32 
L 680.826364 73.640969 
L 680.291943 73.640969 
z
" style="fill:#7f7f7f;stroke:#7f7f7f;stroke-linejoin:miter;stroke-width:2;"/>
   </g>
   <g id="patch_208">
    <path d="M 402.5 90.32 
L 402.5 25.92 
" style="fill:none;stroke:#262626;stroke-linecap:square;stroke-linejoin:miter;stroke-width:2.5;"/>
   </g>
   <g id="patch_209">
    <path d="M 694.08 90.32 
L 694.08 25.92 
" style="fill:none;stroke:#262626;stroke-linecap:square;stroke-linejoin:miter;stroke-width:2.5;"/>
   </g>
   <g id="patch_210">
    <path d="M 402.5 90.32 
L 694.08 90.32 
" style="fill:none;stroke:#262626;stroke-linecap:square;stroke-linejoin:miter;stroke-width:2.5;"/>
   </g>
   <g id="patch_211">
    <path d="M 402.5 25.92 
L 694.08 25.92 
" style="fill:none;stroke:#262626;stroke-linecap:square;stroke-linejoin:miter;stroke-width:2.5;"/>
   </g>
  </g>
 </g>
 <defs>
  <clipPath id="p6086f8b2a7">
   <rect height="64.4" width="291.58" x="55.46" y="25.92"/>
  </clipPath>
  <clipPath id="pa17b616c49">
   <rect height="64.4" width="291.58" x="402.5" y="25.92"/>
  </clipPath>
 </defs>
</svg>
